HIERARCHY
ROOT Hips
{
  OFFSET 52.6907 93.8384 11.375
  CHANNELS 6 Xposition Yposition Zposition Zrotation Xrotation Yrotation
  JOINT spine
  {
    OFFSET 0 7.4756 0.429885
    CHANNELS 3 Zrotation Xrotation Yrotation
    JOINT spine1
    {
      OFFSET 0 9.92301 0
      CHANNELS 3 Zrotation Xrotation Yrotation
      JOINT spine2
      {
        OFFSET 0 9.50804 0
        CHANNELS 3 Zrotation Xrotation Yrotation
        JOINT Neck
        {
          OFFSET 0 24.4111 1.16384
          CHANNELS 3 Zrotation Xrotation Yrotation
          JOINT Head
          {
            OFFSET 0 7.37523 0
            CHANNELS 3 Zrotation Xrotation Yrotation
            End Site
            {
              OFFSET 0 17.8522 -5.88741
            }
          }
        }
        JOINT RightShoulder
        {
          OFFSET -4.00356 10.2679 -0.557468
          CHANNELS 3 Zrotation Xrotation Yrotation
          JOINT RightArm
          {
            OFFSET 0 13.4673 0
            CHANNELS 3 Zrotation Xrotation Yrotation
            JOINT RightArmRoll
            {
              OFFSET 0 6.79858 0
              CHANNELS 3 Zrotation Xrotation Yrotation
              JOINT RightForeArm
              {
                OFFSET 0 19.8018 0
                CHANNELS 3 Zrotation Xrotation Yrotation
                JOINT RightForeArmRoll
                {
                  OFFSET 0 7.62905 0
                  CHANNELS 3 Zrotation Xrotation Yrotation
                  JOINT RightHand
                  {
                    OFFSET 0 15.3098 0
                    CHANNELS 3 Zrotation Xrotation Yrotation
                    End Site
                    {
                      OFFSET 0 0 0
                    }
                  }
                }
              }
            }
          }
        }
        JOINT LeftShoulder
        {
          OFFSET 4.00356 10.2679 -0.557468
          CHANNELS 3 Zrotation Xrotation Yrotation
          JOINT LeftArm
          {
            OFFSET 0 13.4673 0
            CHANNELS 3 Zrotation Xrotation Yrotation
            JOINT LeftArmRoll
            {
              OFFSET 0 6.79858 0
              CHANNELS 3 Zrotation Xrotation Yrotation
              JOINT LeftForeArm
              {
                OFFSET 0 19.8018 0
                CHANNELS 3 Zrotation Xrotation Yrotation
                JOINT LeftForeArmRoll
                {
                  OFFSET 0 7.62905 0
                  CHANNELS 3 Zrotation Xrotation Yrotation
                  JOINT LeftHand
                  {
                    OFFSET 0 15.3098 0
                    CHANNELS 3 Zrotation Xrotation Yrotation
                    End Site
                    {
                      OFFSET 0 0 0
                    }
                  }
                }
              }
            }
          }
        }
      }
    }
  }
  JOINT RightUpLeg
  {
    OFFSET -6.6261 -1.21505 -1.01927
    CHANNELS 3 Zrotation Xrotation Yrotation
    JOINT RightUpLegRoll
    {
      OFFSET 0 17.9517 0
      CHANNELS 3 Zrotation Xrotation Yrotation
      JOINT RightLeg
      {
        OFFSET 0 -22.2304 0
        CHANNELS 3 Zrotation Xrotation Yrotation
        JOINT RightLegRoll
        {
          OFFSET 0 22.3032 0
          CHANNELS 3 Zrotation Xrotation Yrotation
          JOINT RightFoot
          {
            OFFSET 0 18.5636 0
            CHANNELS 3 Zrotation Xrotation Yrotation
            JOINT RightToeBase
            {
              OFFSET 0 15.5183 0
              CHANNELS 3 Zrotation Xrotation Yrotation
              End Site
              {
                OFFSET 0.00657761 7.51539 -0.866262
              }
            }
          }
        }
      }
    }
  }
  JOINT LeftUpLeg
  {
    OFFSET 6.6261 -1.21505 -1.01927
    CHANNELS 3 Zrotation Xrotation Yrotation
    JOINT LeftUpLegRoll
    {
      OFFSET 0 17.9518 0
      CHANNELS 3 Zrotation Xrotation Yrotation
      JOINT LeftLeg
      {
        OFFSET 0 22.2303 0
        CHANNELS 3 Zrotation Xrotation Yrotation
        JOINT LeftLegRoll
        {
          OFFSET 0 22.5093 0
          CHANNELS 3 Zrotation Xrotation Yrotation
          JOINT LeftFoot
          {
            OFFSET 0 18.3575 0
            CHANNELS 3 Zrotation Xrotation Yrotation
            JOINT LeftToeBase
            {
              OFFSET 0 15.5183 0
              CHANNELS 3 Zrotation Xrotation Yrotation
              End Site
              {
                OFFSET -0.029478 7.51539 -0.866262
              }
            }
          }
        }
      }
    }
  }
}
MOTION
Frames: 5
Frame Time: 0.00208333
52.5329 93.8309 12.2499 -1.31974 -2.78572 1.68342 0.233963 -1.58888 0.228414 0.486037 0.825152 0.448602 0.481135 2.47018 0.440521 -1.01804 10.3978 -4.17312 6.51425 2.46936 -3.94696 76.6708 -1.34282 -2.62098 91.7109 -2.07985 27.3565 -1.08516e-006 1.5064e-008 -3.33263e-006 4.54909 0.25777 -1.09974 7.77431e-006 -2.44526e-006 -3 8.02963 -4.95142 0.697653 -73.9324 0.273801 1.64383 -99.2293 14.236 -21.5179 -4.02967e-006 3.79448e-007 4.12959e-006 -2.21911 0.0562777 0.837058 -1.28574e-006 -1.94893e-006 3.00591 -8.03001 -4.9514 -0.697643 179.041 -1.63307 -0.511194 180 7.01545e-015 178.912 178.115 5.2479 179.785 -1.25824e-006 -1.14785e-006 0.0686237 -19.0411 68.4399 19.9279 8.13649 25.2327 -3.48774 -175.511 -0.483847 1.90022 4.54188e-006 -4.6773e-006 -1.08636 -1.06468 -4.8208 0.101573 -1.83587e-006 7.66846e-007 -0.0387628 18.5219 67.7784 -19.3388 -8.13649 25.2327 3.48774 
52.5222 93.8304 12.2571 -1.32992 -2.77713 1.7319 0.235748 -1.59041 0.223151 0.487447 0.822083 0.436719 0.482673 2.46711 0.428619 -0.951764 10.3954 -4.19606 6.43811 2.45568 -3.9592 76.7264 -1.3592 -2.63289 91.7 -2.1977 27.3267 -1.08516e-006 1.5064e-008 -3.33263e-006 4.58576 0.388732 -1.107 7.77431e-006 -2.44526e-006 -3 8.02963 -4.95142 0.697653 -73.8688 0.282823 1.63266 -99.3208 14.2519 -21.4213 -4.02967e-006 3.79448e-007 4.12959e-006 -2.2679 0.0876634 0.835775 -1.28574e-006 -1.94893e-006 3.00583 -8.03001 -4.9514 -0.697643 179.06 -1.65056 -0.522768 180 7.01545e-015 178.912 178.117 5.21272 179.785 -1.25824e-006 -1.14785e-006 0.067812 -19.0311 68.4284 19.9171 8.13649 25.2327 -3.48774 -175.498 -0.453668 1.89773 4.54188e-006 -4.6773e-006 -1.08636 -1.05895 -4.84119 0.102537 -1.83587e-006 7.66846e-007 -0.0392079 18.5302 67.7885 -19.3477 -8.13649 25.2327 3.48774 
52.5245 93.8276 12.2589 -1.34015 -2.76794 1.78124 0.23752 -1.59214 0.217835 0.488728 0.818614 0.424657 0.484085 2.46364 0.416541 -0.883658 10.3942 -4.21926 6.36004 2.441 -3.97135 76.7829 -1.37617 -2.64512 91.6878 -2.31665 27.3014 -1.08516e-006 1.5064e-008 -3.33263e-006 4.62012 0.514889 -1.11388 7.77431e-006 -2.44526e-006 -3 8.02963 -4.95142 0.697653 -73.8037 0.292449 1.62106 -99.4136 14.2681 -21.3246 -4.02967e-006 3.79448e-007 4.12959e-006 -2.31635 0.117162 0.834298 -1.28574e-006 -1.94893e-006 3.00575 -8.03001 -4.9514 -0.697643 179.079 -1.66789 -0.534389 180 7.01545e-015 178.912 178.119 5.17665 179.785 -1.25824e-006 -1.14785e-006 0.0669788 -19.0208 68.4166 19.906 8.13649 25.2327 -3.48774 -175.484 -0.422573 1.89539 4.54188e-006 -4.6773e-006 -1.08636 -1.05305 -4.86189 0.103524 -1.83587e-006 7.66846e-007 -0.0396568 18.5387 67.7988 -19.3568 -8.13649 25.2327 3.48774 
52.5138 93.8277 12.2593 -1.35043 -2.75833 1.83119 0.239281 -1.59401 0.212481 0.489919 0.814864 0.41247 0.485408 2.45989 0.404339 -0.814273 10.3937 -4.24264 6.2806 2.42562 -3.98343 76.8401 -1.39355 -2.65759 91.6746 -2.43636 27.2791 -1.08516e-006 1.5064e-008 -3.33263e-006 4.65288 0.637682 -1.1205 7.77431e-006 -2.44526e-006 -3 8.02963 -4.95142 0.697653 -73.7376 0.302498 1.60916 -99.5073 14.2845 -21.2278 -4.02967e-006 3.79448e-007 4.12959e-006 -2.36455 0.145339 0.832687 -1.28574e-006 -1.94893e-006 3.00567 -8.03001 -4.9514 -0.697643 179.098 -1.68512 -0.546043 180 7.01545e-015 178.912 178.121 5.13993 179.785 -1.25824e-006 -1.14785e-006 0.0661306 -19.0103 68.4047 19.8948 8.13649 25.2327 -3.48774 -175.471 -0.390837 1.89314 4.54188e-006 -4.6773e-006 -1.08636 -1.04703 -4.88282 0.104529 -1.83587e-006 7.66846e-007 -0.0401084 18.5472 67.8092 -19.3661 -8.13649 25.2327 3.48774 
52.5135 93.8043 12.2613 -1.36074 -2.74848 1.88147 0.241037 -1.59596 0.207106 0.491057 0.810954 0.400211 0.486678 2.45599 0.392067 -0.744157 10.3937 -4.26612 6.20039 2.40984 -3.99547 76.8975 -1.41117 -2.67019 91.661 -2.55652 27.2588 -1.08516e-006 1.5064e-008 -3.33263e-006 4.68473 0.758553 -1.12696 7.77431e-006 -2.44526e-006 -3 8.02963 -4.95142 0.697653 -73.6709 0.312788 1.59708 -99.6015 14.301 -21.1309 -4.02967e-006 3.79448e-007 4.12959e-006 -2.41262 0.172762 0.830998 -1.28574e-006 -1.94893e-006 3.00558 -8.03001 -4.9514 -0.697643 179.117 -1.70228 -0.557715 180 7.01545e-015 178.912 178.123 5.10285 179.785 -1.25824e-006 -1.14785e-006 0.0652739 -18.9998 68.3926 19.8835 8.13649 25.2327 -3.48774 -175.458 -0.358734 1.89094 4.54188e-006 -4.6773e-006 -1.08636 -1.04094 -4.90387 0.105544 -1.83587e-006 7.66846e-007 -0.0405615 18.5558 67.8196 -19.3754 -8.13649 25.2327 3.48774 
